<svg fill="none" height="26" viewBox="0 0 76 26" width="76" xmlns="http://www.w3.org/2000/svg">
    <path clip-rule="evenodd"
          d="m19.8278 20.0836c-.2514-.6361-.6936-.9381-1.5243-1.5054l-.0335-.0229c-.6368-.4367-1.0777-1.0294-1.1561-2.2354-.0471-.7562.0034-1.3725.0597-2.0592.0606-.739.1279-1.5594.0873-2.7235-.0588-1.7259-.6466-3.03594-1.0091-3.80532-.4311-.89415-.5095-1.53877-.5389-2.57848-.0161-.52019-.0115-1.39237-.0074-2.18111v-.00004-.00004-.00003c.0034-.64582.0065-1.23568-.0024-1.53055-.0196-.655016-.2743-1.081297-.6956-1.299636-.5192-.259927-1.0679-.1767506-1.5381.363899-.4311.499057-1.2051 1.372417-1.7341 1.892267-.6956.67582-1.1463.83177-1.76353.83177s-1.05811-.14556-1.76351-.83177c-.52905-.50945-1.31282-1.39321-1.73411-1.892267-.47026-.5302525-1.01891-.613429-1.53816-.363899-.43108.207942-.67601.634223-.7054 1.299636-.00883.29974-.00573.89273-.00234 1.54043v.00001.00002.00001.00006c.00414.79015.00869 1.66171-.00746 2.18163-.02939 1.03971-.10777 1.67394-.53885 2.57848-.36249.76939-.95033 2.06903-1.00911 3.80533-.04063 1.1641.02667 1.9845.08728 2.7235.05632.6867.10687 1.303.05968 2.0592-.07838 1.206-.51926 1.7987-1.15607 2.2354l-.08401.058c-.7894.5449-1.227623.8475-1.473754 1.4703-.1763506.4575-.1763506 1.1125.342903 1.3932.333105.1768.734791.1456 1.146271-.0312.08176-.0341.16289-.073.24355-.1116h.00004.00004.00004c.23828-.1141.47247-.2262.70667-.2107.24493.0104.44087.156.47026.5719.03919.4367.22534.6134.52905.6134.24493 0 .47027-.1767.64662-.655.03292-.0901.06277-.1782.09125-.2623l.00004-.0001.00005-.0002h.00001c.13247-.3912.23501-.6939.47689-.6939.31351.0104.38209.3639.40169.8629.02939.7174-.22534 1.2685-.725 1.7571-.57804.5615-1.00911 1.0917-.85236 1.7883.10777.4887.61723.811 1.4206.8526.82297.0312 2.15539.0416 3.07633.0208.86216-.0208 1.36181-.4159 1.45979-.9462.06216-.3133.00107-.522-.05728-.7214-.05201-.1776-.10184-.3479-.06029-.5782.04899-.2703.28412-.3847.53885-.3847s.49963.1144.53883.3847c.0362.2257-.0133.3937-.0645.5676-.0596.2026-.1216.4131-.0531.732.1078.5199.5977.915 1.4598.9462.921.0208 2.2534.0104 3.0666-.0312.8033-.0416 1.3128-.3639 1.4206-.8526.1567-.6966-.2744-1.2164-.8524-1.7883-.4997-.4886-.7544-1.0397-.725-1.7571.0196-.499.098-.8525.4017-.8629.2438-.0087.3461.2975.4801.6989v.0001l.0001.0001v.0002c.0275.0823.0564.1687.088.2572.1764.4783.4017.655.6467.655.3037 0 .4898-.1871.529-.6134s.2351-.5615.4703-.5719c.2342-.0155.4684.0966.7066.2107.0807.0386.1619.0775.2437.1117.4213.1767.8132.2079 1.1463.0311.5388-.2807.5388-.9357.3625-1.3932zm-13.60828-11.00008c.3723 0 .66621-.32231.66621-.70701 0-.39509-.30371-.707-.66621-.707-.37229 0-.66621.32231-.66621.707-.0098.3847.29392.70701.66621.70701zm8.17108-.70701c0 .3847-.294.70701-.6663.70701s-.676-.32231-.6662-.70701c0-.38469.2939-.707.6662-.707.3625 0 .6663.31191.6663.707zm-4.42847.64461c1.56757 0 2.69427.37429 3.77197 1.35158.7446.6759 1.2344 2.0171.6466 3.0152-.2841.5095-.8328.9149-1.4892.9773-.872.0832-1.4108-.2495-1.7537-.655-.3331-.3847-.6858-.7486-1.18547-.7486-.49966 0-.85236.3639-1.18546.7486-.34291.4055-.89155.7382-1.75371.655-.64662-.0624-1.20506-.4678-1.48918-.9773-.55844-1.0085-.07838-2.3497.66621-3.0152 1.0875-.97729 2.20438-1.35158 3.77194-1.35158zm-1.53831 1.61158c0-.70701.67601-1.25806 1.54796-1.25806.87192 0 1.54792.55105 1.54792 1.25806 0 .707-.676 1.258-1.54792 1.258-.87195 0-1.54796-.551-1.54796-1.258zm-1.55754 8.484c0-1.8195 1.3912-3.2959 3.10572-3.2959 1.7047 0 3.1057 1.4764 3.1057 3.2959s-1.3912 3.2959-3.1057 3.2959c-1.71452 0-3.10572-1.4764-3.10572-3.2959z"
          fill="#2d8c3c" fill-rule="evenodd"/>
    <g fill="#000">
        <path d="m28.2826 6.74414c-2.1554 0-4.0658 1.60115-4.5361 3.79496-.0882.4159-.1274 1.0189-.1274 1.9546v7.382c0 .6966.5291 1.258 1.1855 1.258s1.1757-.5614 1.1757-1.258v-2.9632h4.6145v2.9632c0 .6966.529 1.258 1.1756 1.258.6564 0 1.1855-.5614 1.1855-1.258v-7.382c0-.9461-.0392-1.5491-.1274-1.9546-.48-2.2042-2.3905-3.79496-4.5459-3.79496zm-2.3121 7.66266v-1.9131c0-.9773.049-1.2996.0686-1.3932.2351-1.0709 1.1756-1.85066 2.2337-1.85066 1.0679 0 2.0085.77976 2.2338 1.85066.0196.0936.0686.4263.0686 1.3932v1.9131z"/>
        <path d="m66.4031 13.8454c-.049-2.3706-1.7733-4.21087-3.9777-4.21087-.627 0-1.2148.15596-1.7439.42627v-2.13139c0-.65502-.4996-1.18527-1.1169-1.18527-.6172 0-1.1168.53025-1.1168 1.18527v8.12009c0 .8214.0293 1.5804.1567 2.0587.4801 1.7571 2.0084 3.0359 3.8209 3.0359 2.1358 0 3.9189-1.8819 3.9777-4.19.0294-.9253.0196-2.0482 0-3.1087zm-2.2338 3.0463c-.0293 1.0397-.8131 1.8819-1.7439 1.8819-.9601 0-1.7341-.8422-1.7439-1.8507s-.0098-2.0586 0-3.0567c.0098-.9982.7838-1.8507 1.7439-1.8507.9602 0 1.7146.8213 1.7439 1.8611.0196 1.0397.0196 2.1314 0 3.0151z"/>
        <path d="m43.1251 9.63458c-.8719 0-1.6655.3639-2.2631.95652-.5977-.59262-1.3912-.95652-2.2632-.95652-1.548 0-2.8902 1.15412-3.2821 2.80722-.0979.4263-.0979.9149-.0979 1.3412v6.1655c0 .655.4996 1.1853 1.1168 1.1853.6173 0 1.1169-.5303 1.1169-1.1853v-6.1759c0-.2495 0-.6238.0392-.7694.1372-.5926.5976-1.0085 1.1071-1.0085.627 0 1.1365.5927 1.1365 1.3309v6.6125c0 .655.4996 1.1853 1.1169 1.1853.6172 0 1.1168-.5303 1.1168-1.1853v-6.6125c0-.7382.5095-1.3309 1.1463-1.3309.5095 0 .9699.4159 1.1071 1.0085.0392.1456.0392.5199.0294.7694v6.1759c0 .655.4997 1.1853 1.1169 1.1853s1.1169-.5303 1.1169-1.1853v-6.1655c0-.4263 0-.9149-.098-1.3412-.3723-1.6531-1.7145-2.80722-3.2625-2.80722z"/>
        <path d="m67.9907 17.4428c0 2.0378 1.7929 3.7014 3.9973 3.7014 2.1652 0 3.9581-1.6532 3.9972-3.6806.0196-1.362.0196-2.6721 0-4.1484-.0293-2.1003-1.7537-3.68062-3.9972-3.68062-1.9888 0-3.2527 1.16452-3.5858 1.52842-.4409.4678-.4409 1.2164 0 1.6739.4409.4679 1.1463.4679 1.5872 0 .1273-.1352.8425-.8318 2.0084-.8318.8817 0 1.5773.4575 1.7243 1.1021-.5781.3119-1.597.5719-2.1456.707-.8915.2184-3.5858.9046-3.5858 3.6286zm5.7804-1.7987c.0098.603.0196 1.1957-.0196 1.7883-.0392.655-.725 1.3516-1.7635 1.3516-.9503 0-1.7635-.603-1.7635-1.3308 0-.3015 0-.8526 1.8615-1.3204.5976-.156 1.1658-.3119 1.6851-.4887z"/>
        <path d="m56.7046 13.3359c0-2.0378-1.7929-3.70132-3.9973-3.70132-2.1652 0-3.9581 1.65312-3.9973 3.68062-.0196 1.362-.0196 2.672 0 4.1484.0294 2.1002 1.7537 3.6806 3.9973 3.6806 1.9888 0 3.2527-1.1645 3.5858-1.5284.4409-.4679.4409-1.2165 0-1.6739-.4409-.4679-1.1463-.4679-1.5774 0-.1273.1351-.8425.8317-1.9986.8317-.8818 0-1.5774-.4574-1.7341-1.1021.578-.3119 1.5969-.5718 2.1456-.707.8817-.2183 3.576-.8941 3.576-3.6286zm-5.7706 1.8091c-.0098-.603-.0196-1.1956.0196-1.7883.0392-.6446.725-1.3516 1.7635-1.3516.9503 0 1.7635.6031 1.7635 1.3308 0 .3016 0 .8526-1.8615 1.3205-.6074.1559-1.1659.3015-1.6851.4886z"/>
    </g>
</svg>