<svg id="グループ_311" data-name="グループ 311" xmlns="http://www.w3.org/2000/svg" width="511.131" height="90.556"
     viewBox="0 0 511.131 90.556">
    <path id="パス_638" data-name="パス 638"
          d="M212.189,1.5H192.2L154.7,88.814h19.559l6.808-16.1h42.252l6.808,16.1h19.559ZM187.875,56.611l14.372-34.147,14.372,34.147Z"
          transform="translate(12.471 0.121)" fill="#303537"/>
    <path id="パス_639" data-name="パス 639"
          d="M156.922,32.514A31.014,31.014,0,0,0,125.909,1.5H82.9V88.814h18.8V63.527h18.911l14.264,25.286h21.828l-17.074-28.42A31.268,31.268,0,0,0,156.922,32.514ZM101.7,17.6h21.828a14.913,14.913,0,0,1,0,29.825H101.7Z"
          transform="translate(6.683 0.121)" fill="#303537"/>
    <path id="パス_640" data-name="パス 640"
          d="M18.8,35.215V55.1A12.433,12.433,0,0,0,29.5,67.31l43.981,5.4v16.1L24.1,82.654A27.626,27.626,0,0,1,0,55.315V35A27.545,27.545,0,0,1,24.1,7.66L73.482,1.5V17.6L29.5,23.112A12.242,12.242,0,0,0,18.8,35.215Z"
          transform="translate(0 0.121)" fill="#303537"/>
    <path id="パス_641" data-name="パス 641"
          d="M351.578,0a45.278,45.278,0,1,0,45.278,45.278A45.334,45.334,0,0,0,351.578,0Zm0,72.293a27.015,27.015,0,1,1,27.015-27.015A27.025,27.025,0,0,1,351.578,72.293Z"
          transform="translate(24.693)" fill="#303537"/>
    <path id="パス_642" data-name="パス 642"
          d="M315.709,1.5l-33.5,57.921V88.814h-18.8V59.421L229.8,1.5h20.64l22.369,38.47L295.069,1.5Z"
          transform="translate(18.526 0.121)" fill="#303537"/>
    <g id="グループ_309" data-name="グループ 309" transform="translate(431.706 1.621)">
        <path id="パス_643" data-name="パス 643"
              d="M478.925,1.5V88.814h-18.8L418.3,32.081V88.814H399.5V1.5h18.8l41.82,56.732V1.5Z"
              transform="translate(-399.5 -1.5)" fill="#303537"/>
    </g>
</svg>
