<?xml version="1.0" encoding="utf-8"?>
<!-- Generator: Adobe Illustrator 22.1.0, SVG Export Plug-In . SVG Version: 6.00 Build 0)  -->
<svg version="1.1" id="niconico" xmlns="http://www.w3.org/2000/svg" xmlns:xlink="http://www.w3.org/1999/xlink" x="0px"
     y="0px"
     viewBox="0 0 135 135" style="enable-background:new 0 0 135 135;" xml:space="preserve">
<style type="text/css">
	.st0{fill-rule:evenodd;clip-rule:evenodd;fill:#231916;}
	.st1{fill-rule:evenodd;clip-rule:evenodd;fill:#FEFEFE;}
</style>
    <path class="st0" d="M134.9,117.1v-0.3c0-0.5,0-1-0.2-1.4c-0.2-0.8-0.3-1.6-0.2-2.5c0-0.6,0-1.2-0.1-1.7v-0.3
	c-0.1-0.8,0-1.7-0.1-2.5v-1c-0.1-0.9,0.1-1.7,0.1-2.6c0.1-1,0-2-0.1-3l-0.2-2.3v-1.7c0.1-1.1,0.1-2.3,0.3-3.4c0.1-0.5,0.2-1,0.1-1.5
	v-1.4c0.1-0.6,0.1-1.3,0.1-1.9v-1.1c0.2-1.1,0.2-2.3,0-3.3c-0.1-0.8-0.1-1.6,0-2.4v-0.5c-0.1-0.5-0.2-1-0.1-1.5
	c0.4-1.6,0.3-3.2,0.1-4.8v-2.5c0.1-0.8,0.1-1.7,0-2.6c0-0.8-0.2-1.6-0.2-2.4v-1.8c0.2-1,0.3-1.9,0.2-2.9l-0.1-2.6l-0.2-0.9
	c-0.2-0.9-0.2-1.8-0.1-2.7v-2.9c-0.1-0.9-0.1-1.8-0.1-2.7l0.1-2.3c0-0.8,0.1-1.7,0.3-2.5v-0.8l-0.2-1.7c-0.1-0.4,0-0.8,0-1.2
	c0.2-0.6,0.3-1.2,0.3-1.9l-0.1-1.4l-0.2-2.7c0-0.6-0.1-1.3,0-1.9c0.2-1,0.1-1.9,0-2.8c-0.1-0.2-0.1-0.5-0.1-0.7
	c0.2-1.5-0.2-3-0.8-4.4c0-0.1-0.2-0.3-0.3-0.4c-0.2-0.2-0.5-0.3-0.8-0.4c-1-0.6-2.2-0.8-3.3-0.5l-1.9,0.1c-0.5,0-1.1,0-1.6,0.1
	c-0.2,0.1-0.4,0.1-0.7,0.1c-0.7,0-1.4,0-2,0.1c-1,0.1-1.9,0.1-2.9,0.1h-0.7c-0.6-0.1-1.3-0.2-1.9-0.2c-1.2,0-2.4-0.2-3.5-0.4
	c-0.9-0.1-1.7-0.2-2.6-0.2h-1.2l-2,0.2l-1.9,0.1l-1.3,0.1h-2.2c-0.6,0.1-1.2,0.2-1.7,0c-0.4-0.1-0.8-0.1-1.3-0.1c-1,0-1.9,0.1-2.9,0
	h-0.2l-2.3,0.3l-2,0.1h-1.6c-0.8-0.1-1.7,0-2.6-0.2c-0.5-0.2-1-0.2-1.5-0.1H86l-1.9,0.2h-0.8L81.8,27h-3l0.3-0.4l0.9-1l0.3-0.4
	l0.9-1c0.3-0.3,0.6-0.6,1-0.8l0.6-0.5l1.9-1.5c0.4-0.5,1-0.8,1.5-1.3l1.5-1.3l0.9-1.1c0.4-0.6,0.9-1,1.4-1.5
	c0.4-0.5,1.1-0.9,1.4-1.5l0.4-0.4l1.1-1.1c0.7-0.4,1.2-1.1,1.8-1.6c0.4-0.2,0.5-0.6,0.8-0.9L97,9.4c0.5-0.4,0.9-0.9,1.3-1.5l0.5-0.8
	l0.7-0.8l0.9-1.1l0.6-1V2.9c-0.2-0.8-0.7-1.5-1.5-1.9c-0.9-0.5-1.9-0.6-2.8-0.4c-0.5,0.1-0.9,0.4-1.3,0.8c-0.3,0.4-0.6,0.8-1,1
	l-0.3,0.3l-0.4,0.4c-0.5,0.3-1.1,0.7-1.5,1.1l-1.1,1c-0.2,0.4-0.4,0.8-0.8,1l-0.9,1l-0.9,0.9c-0.4,0.4-1.1,0.8-1.5,1.1l-1.1,1
	l-1.1,1.4l-1.1,1.2l-1.8,1.6l-1,0.6l-1.3,1.1l-1.2,1.1c-0.6,0.4-1.2,0.8-1.7,1.3c-0.4,0.4-0.8,0.8-1.1,1L75,19.9
	c-0.3,0.5-0.7,0.9-1.2,1.2L73,21.8l-0.6,0.8l-2.1,1.9l-0.4,0.4c-0.4,0.2-0.9,0.6-1.3,1c-0.3,0.3-0.6,0.5-0.9,0.7H67l-0.8-0.8
	l-1.3-1.1L64,24l-0.9-0.9l-1.2-1.2c-0.4-0.4-1-0.8-1.5-1l-0.1-0.2c-0.8-0.5-1.5-0.9-2.2-1.5l-1.1-1l-1.5-1.4
	c-0.3-0.2-0.5-0.4-0.8-0.8l-1.4-1.5l-0.9-0.8l-1.8-1.7l-1.2-1l-1.4-1.3c-0.6-0.5-1.1-1.1-1.6-1.7l-0.8-0.7L44,6
	c-0.2-0.1-0.3-0.3-0.4-0.4L43,4.8l-1.5-1.2l-1.7-1.4L39,1.7c-0.1,0-0.3-0.2-0.4-0.2c-0.4-0.3-0.8-0.5-1.3-0.6
	c-0.5-0.1-1-0.2-1.5-0.2c-0.2,0-0.5,0-0.7,0.1C35,0.9,34.8,1,34.6,1.1c-0.4,0.2-0.6,0.5-0.8,0.9c-0.4,0.5-0.4,1.1-0.5,1.7v0.4
	l0.1,0.8c0.1,0.3,0.1,0.6,0.3,0.8c0.3,0.5,0.8,1,1.2,1.3l1.3,1l2.3,2l1.1,1.1c0.2,0.2,0.5,0.3,0.6,0.6l0.9,1.1l0.6,0.8l0.8,0.8
	l0.4,0.3l0.1,0.1l0.8,0.8c0.4,0.2,0.8,0.5,1,0.8l0.3,0.3c0.5,0.2,0.9,0.6,1.4,0.9c0.5,0.3,1,0.7,1.3,1l0.8,0.6l1.1,1.1l1.2,0.9
	l0.4,0.5l1.1,1.2c0.4,0.4,0.8,0.9,1.1,1.3l1.5,2l0.4,0.5h-1.7c-1,0-2,0.2-3,0.3h-3.8c-1.4,0.1-2.8-0.1-4.1-0.2
	c-0.7-0.1-1.4-0.1-2-0.1c-0.9,0.1-1.8,0-2.7-0.1c-0.8-0.2-1.5-0.2-2.3-0.2h-1.5c-1-0.2-1.9-0.1-2.8-0.1c-0.8,0-1.4,0.1-2.1,0.2h-1.5
	l-2.3-0.2c-1.3-0.1-2.5-0.1-3.7,0.1l-2.7,0.3c-0.8,0.1-1.3,0-2,0.1c-0.4,0.1-0.8,0.2-1.1,0.1h-1.9c-0.8,0-1.7,0-2.6-0.1
	c-0.8-0.1-1.4,0-2.2,0.1c-0.8,0.2-1.6,0.2-2.4,0.2H6.8l-1.5-0.2l-1.1,0.1c-1.1,0-1.9,0.6-2.6,1.3c-1,1.1-1.6,2.5-1.5,4v4
	c0.2,0.8,0.2,1.6,0.2,2.5v1.3L0.4,42l0.1,1.9c0,0.5-0.1,1.1-0.1,1.6l-0.1,0.8c-0.1,0.7-0.1,1.4,0,2v2.1L0.5,52l-0.2,2.3
	c-0.2,1.2-0.2,2.5,0.1,3.8c0.2,0.8,0.3,1.6,0.2,2.4l-0.2,1.1L0,63v2.6l0.4,3.2l0.3,3.4v1.3c0,1.1,0,2.3-0.3,3.4
	c-0.2,0.7-0.2,1.4,0,2.1l0.1,0.8c0,0.4,0,0.8,0.2,1.2v0.4l0.1,2.9c0,0.4,0,0.8-0.1,1.2L0.3,87v0.3c0,0.4,0.1,0.8,0.1,1.3
	c0,0.5,0,1.1,0.2,1.7v2.3c0,0.9,0,1.8-0.2,2.7v2.3c0.2,0.5,0.2,1,0,1.4c-0.1,0.6-0.1,1.2,0,1.7c0.2,1.2,0.3,2.5,0.2,3.8l-0.1,1.1
	l0.1,2.2l0.1,1.6l-0.1,4.1v2.7c0.1,0.7,0.2,1.4,0.1,2v0.4l0.1,1.1c0.1,1.1,0.6,1.9,1.7,2.3l0.6,0.3c0.8,0.4,1.5,0.6,2.3,0.5l1.1,0.1
	c0.8,0.3,1.5,0.2,2.3,0.2l3.5-0.4c1-0.1,2,0,3,0.1h3.7c0.8-0.1,1.4-0.2,2.1,0c0.6,0.2,1.3,0.3,2,0.1h2.3v0.4c0.4,1,1,1.9,1.6,2.7
	c0.5,0.6,1.2,1.1,1.6,1.8l1.1,2.2c0.2,0.4,0.4,0.9,0.8,1.2l0.6,0.5c0.4,0.5,1.1,1,1.6,1.3l0.8,0.6c0.3,0.3,0.6,0.5,1,0.7
	c0.9,0.1,1.7,0.6,2.6,0.8h0.6l0.2-0.1l1.4-0.1c0.6,0,1.1-0.1,1.7-0.3c0.9-0.2,1.8-0.8,2.4-1.5l1.6-1.8l0.5-0.4
	c0.4-0.2,0.8-0.6,1-1.1c0.2-0.5,0.5-0.9,0.9-1.4l0.6-1.1l0.1-0.3c0.5-1.1,1.3-2.1,1.9-3.2l0.5-0.8h0.2l1.9-0.2c0.3,0,0.6,0,0.8-0.2
	c0.8-0.1,1.7,0,2.5,0.1c0.8,0.2,1.6,0.4,2.5,0.4c0.5,0,1.1,0,1.6-0.1c0.8-0.1,1.6,0,2.5-0.2c0.3,0,0.6,0,0.9,0h2l0.8-0.1
	c0.4,0,0.9-0.1,1.3,0l3.2,0.4c0.6,0,1.2,0.2,1.8,0h0.5c0.5,0.1,1,0.1,1.4,0c0.9-0.2,1.8-0.1,2.8-0.1H78l1.9-0.2
	c1.2,0,2.3-0.1,3.4-0.1l1.2-0.1l0.2,0.4c0.4,0.8,0.6,1.4,1.2,1.9c0.9,0.9,1.7,1.9,2.4,3c0.3,0.8,0.8,1.4,1.3,1.8l0.8,0.9
	c0.5,0.5,0.9,1,1.5,1.4l0.8,0.7c1.3,1.2,3,1.9,4.8,2h0.4c1.1-0.1,2.1-0.1,3.2-0.4l1.9-0.8c0.4-0.2,0.8-0.5,1-0.9l0.4-0.4
	c0.6-0.8,1.1-1.4,1.5-2.3l0.6-1.1l1.8-2.2c0.2-0.3,0.4-0.5,0.5-0.9l0.6-1.4l1-1.5h1.5c0.5,0,1,0.1,1.5,0c1.3-0.2,2.6-0.2,4,0h2.6
	c0.8-0.2,1.6-0.1,2.4,0c0.8,0,1.5,0,2.2-0.2c0.2-0.1,0.4-0.1,0.8-0.1h3.1c0.8,0,1.7,0,2.6-0.3c0.5-0.1,0.9-0.1,1.3-0.4
	c0.4-0.3,0.8-0.6,1-1.1l0.2-0.3l0.7-0.7c0.4-0.6,0.7-1.2,0.8-1.9L134.9,117.1"/>
    <path class="st1" d="M120.4,96.4c0-1.1,0-2.3,0.1-3.4l0.1-2.7c0.2-2.3,0.2-4.7-0.1-7c-0.1-0.8-0.2-1.4-0.1-2.1
	c0.3-1.6,0.4-3.3,0.2-4.9c0-0.9-0.2-1.8,0-2.7v-1.3l-0.2-3.2v-2.3c0.1-0.8,0.2-1.6,0-2.4l-0.1-2c-0.1-0.8,0-1.5,0.1-2.3
	c0.1-0.5,0.1-1,0-1.4c-0.1-0.8-0.2-1.4-0.2-2.1v-1.2l-0.1-1.9c0-0.8,0-1.4,0.2-2.1l0.1-0.3c0.1-1.2,0.2-2.3,0.1-3.4v-1.6
	c0-1.3-0.4-2.4-1.2-3.3c-0.5-0.5-1-0.9-1.6-1.3l-0.3-0.2c-0.7-0.2-1.3-0.3-2-0.4c-0.8,0-1.6-0.1-2.3,0h-2.2c-0.4,0-0.8,0.1-1.2,0
	c-0.8-0.1-1.7-0.1-2.4,0h-3.8c-0.7,0-1.3,0.2-1.9,0.1l-0.9-0.1c-0.9,0-1.9-0.3-2.8-0.1H95c-0.3,0-0.6,0-0.9,0
	c-0.9,0.1-1.9,0.1-2.9-0.1c-0.8-0.1-1.5-0.1-2.3,0h-2.3c-0.4-0.1-0.8-0.1-1.1-0.1c-0.4,0-0.8,0-1.2,0.2h-1.6l-1.7-0.1
	c-0.8-0.1-1.6,0-2.5,0.2h-0.8c-0.8-0.2-1.4-0.2-2.1-0.2l-1.9-0.1h-0.8c-1.3,0.3-2.6,0.5-4,0.4h-1.9c-0.6-0.2-1.1-0.2-1.7-0.1
	c-0.7,0.1-1.4,0.1-1.9,0L63,40.6h-1.8c-0.3-0.1-0.6-0.1-0.8,0h-1.9c-0.4,0-0.8,0-1.1,0.2C56.4,41,55.5,41,54.5,41
	c-1,0-2-0.2-3.1-0.3c-0.5,0-1,0-1.5-0.2c-0.8-0.2-1.7-0.2-2.5,0l-0.9,0.1c-1.3,0-2.5,0-3.8-0.1c-0.5,0-1.1-0.1-1.6,0.1
	c-0.4,0.2-0.8,0.1-1.2,0h-0.5L38,40.6l-1.2,0.1c-1.1,0-2.1,0.1-3.1-0.2c-0.3-0.1-0.6-0.1-0.8,0c-0.8,0.1-1.5,0.2-2.3,0.1h-0.5
	l-1.8,0.2L26.9,41h-1.3l-2-0.3h-0.8c-0.7,0.1-1.3,0.1-1.9,0.1c-0.9-0.1-1.7,0-2.6,0.1c-0.8,0.1-1.4,0.4-2,0.8
	c-0.4,0.2-0.8,0.5-1,0.9c-0.4,0.9-0.7,1.8-0.9,2.7l-0.1,1.4l0.1,2.3v1c-0.1,0.8-0.2,1.7-0.1,2.5V53c-0.2,0.8-0.3,1.6-0.4,2.4
	l-0.1,2.4c0,1.1-0.2,2,0,3.1l0.3,2.1v1c-0.2,1.3-0.2,2.5,0.1,3.8c0.2,0.8,0.2,1.6,0,2.5c-0.2,1.1-0.2,2.3,0,3.3V77l-0.1,4.6v1
	c0.1,0.8,0.1,1.7,0.1,2.4c0,1.3-0.1,2.7-0.1,4.1c0,1,0,1.9-0.2,2.9v3.2c0.2,1.1,0,2.3,0.2,3.4v0.4c-0.1,0.9-0.2,1.9-0.1,2.8
	c0,1.1,0.1,2.3,0.2,3.3c0,0.5,0.1,1.1,0.4,1.5c0.8,1.1,1.8,1.7,3.1,2c0.8,0.1,1.4,0.2,2.2,0.2h2.6c1.4-0.1,2.6-0.4,3.9-0.4
	c1,0,1.9,0.1,2.8,0.2l2.9,0.1h5.9l1.3,0.2l1.4-0.2c0.5-0.1,1.1-0.1,1.6,0c1.8,0.1,3.7,0.2,5.5,0.2l2.4-0.2h0.6
	c0.7-0.1,1.3-0.3,1.9-0.2h1.7l1.1,0.2l0.8,0.2c0.6,0.1,1.2,0.1,1.8,0l1.5,0.1c0.5,0.1,1,0.1,1.5,0.1h1.2l1.9-0.1h1.7l2.3-0.2h2.7
	c0.7,0,1.3,0.2,2.1,0.3l2.6-0.1h0.8c0.8,0.1,1.7,0.1,2.6,0c0.2-0.1,0.5-0.2,0.8-0.1h0.8c0.7,0,1.4,0,1.9-0.2h2
	c1.6,0.3,3.2,0.4,4.8,0c0.8-0.2,1.3-0.2,2.1-0.1h2.3c1.1,0,2.1,0.1,3.2,0l0.1,0.1c1.1,0.2,2.1,0.1,3.2,0.1h0.6c0.9-0.2,1.7,0,2.6,0
	c1.1,0,2.1,0.2,3.2,0c1.1-0.2,2.3-0.4,3.6-0.2h0.8c0.8,0.1,1.7,0.1,2.6,0.2h0.8c0.5,0,1.1,0,1.5-0.1c0.4,0,0.8-0.1,1.3-0.2
	c0.6,0,1.1-0.2,1.6-0.6l0.5-0.4c0.4-0.2,0.7-0.6,0.8-1c0.3-0.6,0.4-1.2,0.5-1.8c0.3-1.4,0.1-2.8,0-4.2
	C120.4,99.1,120.3,97.8,120.4,96.4 M39.8,74.6V75l-0.1,0.3c-0.1,0.1,0,0.1,0,0.3c-0.2,0,0,0.1-0.2,0.2l-0.1,0.4
	c-0.1,0.2-0.1,0.4-0.2,0.4v0.2L39,77.2c0,0.1-0.1,0.2-0.2,0.4l-0.1,0.1l-0.8,1l-0.2,0.1c-0.6,0.5-1.2,0.9-1.9,1.2l-1.7,0.3
	c-0.8,0-1.5,0-2.3-0.2c-0.1,0-0.2,0-0.4-0.2L31,79.7c-0.8-0.3-1.6-0.8-2.3-1.4c-0.9-0.8-1.5-1.9-1.7-3.1v-2.1l0.1-0.2v-0.3l0.1-0.2
	V72l0.1-0.2l0.2-0.7l0.1-0.2c0.1-0.4,0.4-0.8,0.8-1.1l0.1-0.3l0.1-0.1l0.2-0.1c0.1-0.1,0.1-0.2,0.3-0.2V69l0.2-0.1l1.3-0.8l0.6-0.3
	h0.2l0.1-0.1H32c0.5-0.2,0.9-0.3,1.4-0.3h1.1l0.3,0.1l0.2,0.1c0,0.1,0.1,0,0.2,0l0.1,0.2h0.1c0.1,0,0.2,0,0.2,0.1l0.3,0.1l0.2,0.1
	c0.6,0.3,1.2,0.7,1.8,1.2l0.9,1.3l0.1,0.2l0.1,0.2l0.4,1.1l0.2,1.1L39.8,74.6 M77.6,98.6c0,0.5-0.3,1-0.8,1.3l-0.4,0.1l-1.1,0.1
	H58.4c-0.5,0-0.8-0.3-1.1-0.7c-0.1-0.2-0.2-0.4-0.2-0.8V98c0-0.4,0.2-0.8,0.5-1l0.9-1.1l1.2-1.3l1-1l1.1-1.3l1.9-1.9
	c0.3-0.4,0.8-0.8,1.1-1.2l1.2-1.1c0.3-0.2,0.6-0.4,0.9-0.4h0.6c0.6,0,1.2,0.3,1.6,0.8l2.4,2.5l1.2,1.1c0.6,0.5,1.1,1.1,1.6,1.7
	l0.8,0.8l1.5,1.4c0.3,0.4,0.7,0.8,0.8,1.2c0.2,0.3,0.2,0.5,0.2,0.8V98.6 M107.6,61.8l-0.1,0.5v0.3l-0.1,0.2l-0.1,0.1
	c-0.1,0.5-0.3,0.9-0.5,1.4l-0.4,0.8l-0.2,0.1c-0.1,0-0.1,0.1-0.2,0.1l-0.2,0.2c-0.4,0.4-0.8,0.5-1.3,0.8c-0.2,0.2-0.5,0.2-0.8,0.2
	l-0.2,0.1h-0.1c-0.1,0.1-0.3,0.1-0.4,0.1l-0.5,0.2l-0.6,0.1l-1.5,0.1c-0.5,0-0.9-0.1-1.3-0.2l-0.7-0.3L97.3,66l-0.1-0.1l-0.3-0.2
	l-0.2-0.2h-0.1c0-0.1-0.1-0.2-0.1-0.2l-0.5-0.8l-0.2-0.2v-0.1l-0.4-0.6l-0.1-0.4l-0.1-0.3v-0.3c-0.2-0.2-0.2-0.3-0.2-0.5v-0.2
	c-0.1,0-0.1-0.2-0.1-0.2v-1.7c0.1-0.6,0.1-1.2,0.4-1.8l0.7-1.1l0.1-0.2l0.1-0.1c0.1-0.2,0.3-0.4,0.4-0.5l0.2-0.1
	c0.2-0.3,0.6-0.5,0.9-0.8c0.2,0,0.4-0.1,0.5-0.3l0.4-0.1h0.2l0.5-0.2c0.8-0.1,1.6-0.1,2.4-0.1c0.6,0.1,1.1,0.3,1.7,0.4
	c0.7,0.4,1.4,0.8,2.1,1.2l0.3,0.3c0.4,0.4,0.8,0.8,1,1.2l0.1,0.2l0.3,0.8l0.1,0.4v0.3c0.2,0,0,0.1,0.1,0.1l0.2,1.1V61.8 M105,122.7
	l-0.4,0.1h-1.1l-0.6-0.1c-0.5-0.1-1.1-0.1-1.6,0c-0.9,0.1-1.8,0.2-2.7,0.2c-0.4,0-0.9,0-1.3,0.1c-0.7,0.2-1.5,0.2-2.3,0l-1.9-0.1
	h-0.4l-1.1,0.1l1.4,2.3c0.7,1,1.4,1.9,2.3,2.8l0.8,0.8c0.8,0.7,2.4,0.9,3.4,0.2c0.4-0.2,0.7-0.5,1.1-0.8l0.4-0.4
	c0.4-0.3,0.8-0.6,1-1l1.5-1.9l1.3-1.8C104.7,122.9,104.9,122.9,105,122.7 M40.1,128.7c0.8-0.7,1.4-1.5,2.2-2.1
	c0.4-0.3,0.5-0.8,0.8-1.2l1-1.5l0.6-0.8l-1.3-0.1h-0.8c-0.8-0.1-1.5,0-2.3,0h-1.5c-0.9-0.1-1.8-0.1-2.7,0c-1.1,0-2.3,0.1-3.3-0.1
	h-1.3l0.9,1.3l1.2,1.7l0.2,0.3c0.6,0.5,1,1.2,1.5,1.7l0.1,0.1c1.1,1.4,1.1,1.1,2.3,1.4C38.6,129.6,39.4,129.4,40.1,128.7"/>
    <path class="st1" d="M129.3,100.9l0.1-1.9v-0.8c-0.1-0.5-0.1-1.1,0-1.6c0.2-0.9,0.2-1.8,0.1-2.7c0-0.5,0-1,0.2-1.5v-1.6
	c-0.2-0.7-0.2-1.4-0.2-2.2c0.1-1.3,0.2-2.6-0.1-4c-0.1-0.5-0.1-1.1,0-1.5l0.2-1.1c0.1-1,0-1.9,0-2.9v-0.1c-0.2-0.3-0.2-0.6-0.1-0.8
	v-1.5l0.1-1.4l0.1-1.4v-1.6c-0.1-0.5-0.2-1-0.2-1.5c0-0.3,0-0.7-0.1-1.1c-0.1-0.9-0.3-1.8-0.1-2.7c0.1-0.8,0.1-1.6,0.1-2.4
	c-0.1-0.7,0-1.4,0.2-2.1l0.1-0.9v-2.9c-0.2-1.2-0.2-2.5-0.4-3.8V54l-0.1-1.2c0-0.6-0.2-1.2,0-1.8c0.2-0.5,0.2-1.1,0.1-1.6l-0.2-1.7
	v-1.8c0-0.9-0.2-1.7,0-2.5c0.1-0.8,0-1.5,0.1-2.3v-3.3c0-0.4-0.2-0.8,0-1.1c0.1-1,0-2-0.1-3c0-0.5-0.2-0.8-0.6-1.2
	c-0.4-0.4-1.1-0.5-1.7-0.5l-1.3-0.1H124c-1.2,0-2.3-0.3-3.5-0.3h-0.1l-0.9-0.1c-0.9,0-1.8-0.2-2.7-0.4c-0.4,0-0.9-0.2-1.4,0
	c-0.1,0.1-0.4,0.1-0.5,0.1l-1,0.1c-0.6,0.2-1.2,0.3-1.8,0.2h-0.2c-0.9,0.2-1.8,0.2-2.7,0.1c-1.3,0-2.6,0.4-3.8,0.4
	c-0.7,0-1.4,0.1-2-0.1c-0.4-0.2-0.8-0.3-1.2-0.2h-0.3c-0.5,0-1-0.2-1.6-0.3h-3.4c-0.4-0.2-0.8-0.2-1.2,0h-1.5c-0.6,0-1.2,0-1.8,0.1
	l-2,0.4H88l-0.4-0.1c-0.5,0.1-1.1,0-1.6-0.1c-0.4-0.1-0.8-0.2-1.2,0c-0.9,0.1-1.7,0-2.6-0.1c-0.8-0.1-1.5-0.2-2.3,0l-0.4-0.1h-0.9
	L77,31.4l-0.7,0.1c-0.2,0.1-0.5,0.2-0.8,0.2c-0.5,0-1-0.1-1.5-0.2c-0.3-0.1-0.7-0.2-1.1-0.2c-0.8,0-1.4,0-2.1-0.2
	c-0.6-0.2-1.3-0.1-1.9,0.1c-0.1,0-0.3,0-0.4,0h-2.3c-0.7,0-1.4,0.2-2,0.4c-0.5,0.2-1,0.2-1.5,0.2h-2.5l-1.9-0.1
	c-0.5-0.1-1,0-1.4-0.1h-0.3c-0.9,0.2-1.8,0.2-2.7-0.1h-0.5l-1.3-0.2h-1.4L50,31.2l-1.1-0.1L48.1,31c-0.3-0.2-0.6-0.1-0.9,0
	c-0.3,0-0.7,0.1-1.1,0c-0.6-0.1-1.1,0-1.6,0.1h-0.4l-1.5-0.1c-0.7-0.2-1.4-0.2-1.9,0c-1,0.1-1.9,0.2-2.8,0.4
	c-0.9,0.1-1.7,0.3-2.7,0.1h-6c-0.5,0.2-1,0.2-1.5,0.2l-0.8-0.1c-0.8,0-1.7,0-2.4-0.2h-0.4c-0.9,0-1.7-0.1-2.6-0.1l-2.1,0.1
	c-0.8,0.1-1.5,0.2-2.3,0.2h-1.3c-0.6,0-1.2-0.2-1.8,0H14c-0.7-0.2-1.3-0.2-1.9,0h-0.7c-0.4-0.2-0.8-0.2-1.2-0.1H8.5
	c-0.5,0-0.8,0.2-1.3,0.3c-1,0.2-1.5,0.9-1.5,1.7c0,1.2-0.1,2.4,0,3.7v1l-0.1,3.3c0,0.9,0,1.8-0.2,2.6V45c0,0.4,0,0.8-0.1,1.1v0.5
	c0.1,0.4,0.1,0.8,0.1,1.2c0,0.8,0,1.7-0.1,2.5l-0.1,1.4L5.3,54v2.5l0.2,2.3v1.5c0.1,0.5,0.1,1,0.1,1.6v1.1c0.1,0.1,0.1,0.4,0.1,0.6
	c0,1.4,0,2.9-0.1,4.4l-0.2,2.3c0,0.8-0.3,1.6-0.2,2.4v2.9c0,1.1,0.5,2.2,0.4,3.2c0.2,0.6,0.1,1.2,0.1,1.8v5.6l0.1,2.6v0.9
	c-0.2,0.5-0.1,1-0.2,1.4v6.5c0.2,1.8,0,3.5,0.1,5.3l-0.2,2.6c0,0.4,0,0.9-0.1,1.3v1.7c-0.2,0.3-0.1,0.8,0,1v0.8
	c-0.2,0.5-0.2,0.9-0.2,1.4l0.3,1.4c0.1,0.8,0.3,1.3,0.3,2.1c0,0.4,0.1,1,0.3,1.5c0.4,0.5,0.8,1.1,1.5,1.2c1.2,0.3,2.5,0.3,3.8,0.1
	l1.9,0.1c0.8,0.1,1.6,0.1,2.4,0c0.6,0,1.1,0,1.7,0.1l1.9,0.3l1.1,0.1c0.5,0.2,1.1,0.2,1.6,0.2c0.9,0,1.8,0,2.7-0.3h0.1l1.9-0.2
	c0.6,0,1.2-0.1,1.9,0c0.9,0,1.8-0.1,2.7-0.1h0.1l1.9-0.2l2.3,0.1c0.5,0,1,0,1.4,0.1l1,0.2c0.4,0,0.9,0,1.3,0.1
	c0.8,0.1,1.5,0.1,2.3-0.1c0.9-0.2,1.8-0.3,2.8-0.2l2.3,0.1c0.8,0.1,1.5,0.1,2.3,0h1.1l1.1,0.1c0.9,0,1.7-0.1,2.6-0.2
	c0.9-0.1,1.7,0,2.6,0.2c0.4,0,0.8,0.1,1.2,0c0.4-0.2,0.8-0.1,1.1,0l1.1,0.1l2.4-0.1h0.5c0.4,0.2,0.9,0.2,1.3,0h1.1l1.4,0.2l2.2,0.2
	l2.6,0.1h0.9c0.8-0.3,1.5-0.3,2.3-0.4h3.9l1.3,0.1H83c0.5-0.1,0.9,0,1.4-0.1h0.3c0.5-0.2,1.1-0.2,1.7-0.2h5.5l1.5,0.3
	c0.4,0.1,0.9,0.1,1.4,0c0.3-0.1,0.6-0.2,1-0.1l1.1,0.1l0.4,0.1c0.3,0.1,0.6,0.1,0.8,0.1c0.5-0.1,0.9-0.2,1.4-0.1h0.4
	c0.5-0.1,1.1-0.2,1.6,0c0.5,0,1.1,0.1,1.7,0.1h2c0.4-0.1,0.8,0,1.3-0.1c0.5-0.1,1-0.2,1.6-0.1h0.2l0.7-0.1h2.9
	c0.5-0.2,1-0.1,1.5-0.4h0.4l1.1,0.2l1.1,0.3c0.4,0.1,0.9,0.1,1.3,0l1.3-0.2l1.7,0.1c0.2,0,0.4,0.1,0.6,0h0.8l1.3,0.1
	c1.1,0,2.3,0.2,3.3,0l2.3-0.6c0.2,0,0.3-0.2,0.4-0.3c0.4-0.6,0.8-1.3,0.8-1.9l0.2-2.6v-3.7c-0.2-0.8,0-1.5,0.1-2.3
	c0.2-0.9,0.2-1.9,0-2.8C129.4,102.8,129.2,101.8,129.3,100.9 M124.4,104.3l-0.4,2.9c0,1-0.2,1.9-0.1,3v0.8c-0.1,0.7-0.5,1.1-1.2,1.1
	h-1.4l-1.9-0.1c-0.6-0.1-1.2,0-1.9,0.1c-1.4,0.3-2.9,0.4-4.3,0.1h-0.7c-0.1,0-0.3,0-0.4-0.1c-0.4-0.2-0.9-0.1-1.4-0.1l-1.2-0.2
	c-1.1-0.1-2.2-0.1-3.3,0c-0.8,0.2-1.6,0.2-2.3,0h-2.8c-0.6-0.1-1.1-0.1-1.7,0l-1.6,0.1l-2.6,0.2h-4.1c-0.8-0.3-1.5-0.2-2.2-0.2
	c-0.5,0-1.1-0.1-1.5,0.1c-0.7,0.2-1.3,0.2-1.9,0.1h-0.2c-0.9,0-1.7-0.2-2.5-0.2c-0.8,0-1.4-0.1-2.2,0h-2l-1.9,0.1
	c-0.5,0-1.1,0.1-1.6,0.2l-1.4,0.2c-1.1,0.2-2.2,0.3-3.2,0.1l-1.4-0.1c-0.8-0.1-1.5-0.3-2.3-0.3h-1.9c-0.3-0.1-0.7-0.1-1,0h-2.4
	c-0.6-0.2-1.2-0.1-1.8,0h-2.1l-1.9-0.2c-1-0.1-2-0.2-2.9-0.1h-1.7c-1-0.1-2-0.1-3,0c-0.6-0.1-1.2,0-1.8,0.1h-0.4
	c-1.8,0-3.5,0.1-5.3,0.3c-0.4,0-0.9,0-1.3-0.1c-1.1-0.3-2.3-0.2-3.4-0.2h-1.9c-0.8-0.2-1.5-0.1-2.2-0.1h-0.5c-0.8,0-1.4,0.2-2.1,0.2
	c-0.8,0.1-1.5,0.1-2.2,0.1c-0.5,0-1.1,0-1.5,0.1c-1.1,0.2-2.1,0.2-3.1,0.1h-1.3c-1.2,0.3-2.5,0.2-3.8-0.2h-0.9l-2.4-0.1
	c-0.5,0-1-0.1-1.5-0.3c-0.8-0.2-1.1-0.8-1.3-1.5c-0.1-1.3-0.3-2.6,0-3.8v-0.6c-0.1-0.8,0-1.4,0-2.1V103l-0.1-0.5
	c-0.1-1.2-0.2-2.4-0.1-3.6l0.2-1.8c0.2-2.1,0.2-4.3,0.2-6.4c0-1.2-0.2-2.3-0.2-3.4l-0.1-3l0.1-1.7c0.1-1.1,0.2-2.3,0.1-3.5l-0.1-3
	c-0.1-1.9-0.1-3.8-0.4-5.7v-3.2c0.1-1.2,0.1-2.5,0.2-3.7v-1.2L11,59.9c-0.1-0.8-0.2-1.7-0.1-2.5c0-1.1,0-2.1,0.1-3.1l0.1-3v-1.7
	c0-0.8,0-1.6,0.1-2.4s0.1-1.5,0.1-2.2v-2.3c0.2-0.3,0.1-0.7,0.1-1l0.1-2.4c0.1-0.8,0.6-1.4,1.4-1.5h3.8c0.8-0.1,1.5-0.2,2.3-0.1
	c1.7,0.1,3.4,0.2,5.1,0.1h2.5c0.4-0.1,0.9-0.1,1.3,0c0.5,0.1,1,0.1,1.4,0c0.4-0.1,0.8,0,1.3-0.1c1.2-0.1,2.5-0.1,3.8,0
	c0.4,0.1,0.8,0.1,1.2,0.1h1.3c0.1,0.1,0.3,0.1,0.4,0.1l1.5,0.2h0.9l1.5,0.1h0.3c1.5-0.3,3-0.3,4.6-0.3h1.8c0.5,0.1,1,0.1,1.4,0
	l1.8-0.1c0.8,0,1.5,0,2.3,0.1h2.5c1,0,1.9,0,2.9-0.1h0.4l1.6-0.2h0.5c0.8,0.1,1.5,0.2,2.3,0.1c0.5-0.1,1.1-0.1,1.6,0
	c1.1,0.2,2.2,0.2,3.2,0.2h4.4l2.3-0.1l3.3-0.3l1.6,0.2h0.3c0.9,0,1.8,0.2,2.6,0.2h1.8c1.6,0.2,3.2,0.1,4.7-0.1h1.1
	c0.6-0.2,1.3-0.1,1.9,0c0.8,0.1,1.5,0,2.3,0.1c1.1,0.1,2.3,0,3.5,0.2h2c0.5,0.1,1.1,0.1,1.6,0l2.4-0.2l4.1,0.1c0.8,0,1.5,0,2.2-0.1
	h1.5l1.4,0.1h1.5c1-0.2,2-0.3,3-0.3l3.6-0.2c0.5,0,1.1,0.1,1.6,0.3c0.6,0.2,0.8,0.8,0.9,1.3c0.1,1.2,0.2,2.4,0.1,3.8v3.2
	c-0.1,1.5-0.1,3,0.2,4.5c0.1,0.9,0.1,1.9,0,2.8c0,1.2,0,2.3,0.1,3.4c0.2,0.9,0.1,1.9-0.1,2.9c-0.2,1-0.2,1.9-0.2,3v0.8l0.2,2.3
	c0,1,0.1,1.9-0.1,3c-0.2,1.2-0.2,2.5-0.1,3.8l0.2,2.1l-0.1,1.8l-0.2,1.5l0.1,0.8v2l0.1,2.6c0.1,0.8,0.1,1.5,0,2.3v1.5
	c0,0.8,0.1,1.5,0.2,2.2v0.2c-0.1,0.8,0,1.4,0,2.1c0,0.8,0,1.5,0.2,2.3l-0.2,1.9c-0.1,1.2-0.3,2.3-0.2,3.4c0.1,0.9,0.1,1.8,0.3,2.7
	C124.5,102.5,124.4,103.4,124.4,104.3"/>
</svg>
