<svg xmlns="http://www.w3.org/2000/svg" viewBox="0 0 294.2 89.2">
    <path id="XMLID_98_" fill="#3DC49D"
          d="M294.1,69.4c-0.7-1.8-1.1-2.4-2.1-3.5c-1.1-0.9-2.4-0.1-2.7,0.6c-1.5,4.6-4.9,14.1-10.4,12.7c-3.1-0.8-3.4-4.5-3.2-6.9c0.9-7.9,8.2-64.4,8.6-67.6c0.2-1.4,0.8-3.5-0.9-4.1c-4-1.2-9.9-0.7-13,2.3l0,0c-0.6,0.6-1.1,1.4-1.2,2.3v0.1l-3.9,31.8c-9.3-2.5-21.3-0.5-27.5,4.7c-7.4,6.2-11.5,15.3-10.8,24.9c-1.7,5.5-4.4,9.8-6.4,11.6c-2.1,1.9-5.9,1.4-7-1.6c-0.7-1.9,0.1-5.3,0.2-6.2c0.4-3.7,1-7.4,1.5-11.1c1.1-7.5,3.4-15.9-4.2-20.6c-7.3-4.6-17.1-2.8-23.3,2.6c-2.2-6.8-9.3-5.6-14-4.1c-10.4,2.6-20.7-6.7-22.1,0c-0.3,1.3-0.5,4.3-0.7,7c-0.2,3-0.3,5.7-0.3,5.7c-0.9,9.2-1.2,10.8-2.7,17.5c-0.8,3.3-1.8,6.3-3.4,8.5s-3.7,3.3-5.7,3.3c-0.1,0-0.2,0-0.3,0c-4.4,0-6.9-3-6.9-8.2c0-1.2,1.1-6.7,2.5-16.9c1-7.2,1.3-9.2,1.5-10.5c0.5-3.5-3-7.6-7.7-7.6c-2.6,0-4.5,0.4-6.8,1.3l-3.8,32.5c-0.4,2.5-0.7,5.1-2.1,6.7c-1.5,1.7-3.7,2.5-5.5,2.5s-4-1.2-5-2.4c-1-1.2-1.6-2.8-1.6-4.1c0-1.3,1.1-6.8,2.5-17c1.1-8.1,1.3-10.9,1.5-12.3c0.3-2.8-2.4-7.3-7.6-7.3c-1.8,0-3.8,0.4-6.1,1.1c-0.1,0-0.2,0-0.3,0c-2.5,0.3-3.9,0-4.9-0.4c-2.2-0.8-4.6-4.4-6.5-8.7c-0.6-3.9-1.9-7.8-3.8-11.4C72.4,6.2,60.1,0.1,46.9,0.1C30,0.1,18.1,6.8,8,19.7C2.7,26.5-4.9,45.6,4.4,45.6c2.1,0,3-4.1,3.4-5.4c1.5-5,2.6-7.6,4.5-10.7c4-6.7,9.1-10.5,15.3-14.4c7-4.5,16.3-6,24.9-4.4c7.3,1.4,12.4,8.1,14,14c3.8,14.2-0.4,29.7-7.9,42.6c-2.7,4.6-6.9,10.5-13.3,11.6c-8,1.4-10.9-5-11.5-10.5c-1.9-16.2,3-33.7,13.3-47.4c2-2.3-0.3-5.8-3.7-4.9c-3.3,0.8-6.3,2.5-8.9,4.4c-6.3,4.8-10.3,11.7-13,18.5c-4.9,12.6-8.1,31.5,2.2,42.9c8.5,9.4,24.8,9.1,35,2.1c12.1-8.3,18.7-22.2,21.8-34.7c0.4-1.8,0.8-3.6,1.1-5.4c2.6,2.7,6.5,4,10,3.6c-0.8,7.1-1.7,14.9-2.7,23.4c-0.1,1-0.1,1.9-0.1,2.6c0,4.2,1.4,7.8,4.2,10.9c2.8,3.1,8.4,4.6,10.7,4.6c7.3,0,12.8-2.7,16.3-8.2c3.1,5.4,9.7,8,14.2,8c7.4,0,13.4-1.8,17.4-5.8c8.3-8.7,9.2-16.3,10.6-31.1c0.4-3.3,0.1-6.8,0.1-7.7c3,1.1,6,2,9.9,1.3l-4.7,40.9l0,0c-0.1,1.1,0.7,2,1.8,2.1l0,0h10.9c0.9,0,1.8-0.7,1.9-1.6c1.1-8.1,1.9-15.9,3-24.1c0.7-5.6,0.8-13,6-16.5c4.9-3.3,10.6,0,10.6,5.7l-2.4,22.2c-0.7,4.6,1.2,9.2,4.8,12.1l0,0l0,0c8.3,6.2,20.6,1.3,24.6-7.4c0.1-0.1,0.1-0.3,0.2-0.4c5.7,10.6,16.9,12.9,26.5,8.8c2.2-1,4.2-2.4,5.9-4c5.6,6.6,16,7.6,23.1,3.1c5.6-3.6,7.3-8.5,9.6-15.2C294.3,70.7,294.3,69.9,294.1,69.4z M261.3,69.3c-0.8,5.3-4.6,10.1-10.2,10.1c-7.1,0-9.8-7.9-9.2-13.9c0.4-5.9,1.6-11.7,5.9-16.1c2.2-2.2,5-3.5,8.1-3.9c1.9-0.2,8-0.9,7.9,3.2C263.8,49.5,261.3,69.3,261.3,69.3z"/>
</svg>
